<?xml version="1.0" encoding="utf-8"?>
<!-- Generator: Adobe Illustrator 27.8.1, SVG Export Plug-In . SVG Version: 6.00 Build 0)  -->
<svg version="1.1" xmlns="http://www.w3.org/2000/svg" xmlns:xlink="http://www.w3.org/1999/xlink" x="0px" y="0px"
	 viewBox="0 0 45.4 45.3" style="enable-background:new 0 0 45.4 45.3;" xml:space="preserve">
<style type="text/css">
	.st0{fill:#6E0FF5;}
	.st1{opacity:0.6;fill:#6E0FF5;}
	.st2{opacity:0.97;}
	.st3{fill:#FFFFFF;}
	.st4{fill:#D0C7E8;}
	.st5{fill:#AD89EC;}
	.st6{fill:#A064FF;}
	.st7{fill:#F55364;}
	.st8{opacity:0.8;fill:#1A1F3D;}
	.st9{fill:#6A0560;}
	.st10{fill:#1A1F3D;}
	.st11{opacity:0.8;fill:#6E0FF5;}
	.st12{opacity:0.8;}
	.st13{opacity:0.3;}
	.st14{opacity:0.8;fill:#FF95B9;}
	.st15{opacity:0.8;fill:#FF5786;}
	.st16{fill:none;}
	.st17{opacity:0.77;fill:#6E0FF5;}
	.st18{opacity:0.8;fill:#FFFFFF;}
	.st19{opacity:0.58;fill:#6E0FF5;}
	.st20{opacity:0.3;fill:#FFFFFF;}
	.st21{opacity:0.52;}
	.st22{fill:none;stroke:#FFFFFF;stroke-width:3.1935;stroke-linecap:round;stroke-miterlimit:10;}
	.st23{opacity:0.82;}
	.st24{fill:none;stroke:#FFFFFF;stroke-width:2.1067;stroke-linecap:round;stroke-linejoin:round;stroke-miterlimit:10;}
	.st25{fill:#2E194E;}
	.st26{fill:#FF7BA7;}
	.st27{opacity:0.8;fill:#6E09B2;}
	.st28{opacity:0.8;fill:#FF7BA7;}
	.st29{opacity:0.8;fill:#6E0581;}
	.st30{fill:#EBE8F5;}
	.st31{fill:none;stroke:#FFFFFF;stroke-width:4;stroke-linecap:round;stroke-linejoin:round;stroke-miterlimit:10;}
	.st32{opacity:0.71;}
	.st33{fill:none;stroke:#EBE8F5;stroke-width:5.5;stroke-miterlimit:10;}
	.st34{fill:none;stroke:#1A1F3D;stroke-width:5.5;stroke-miterlimit:10;}
	.st35{fill:none;stroke:#1A1F3D;stroke-width:4.3925;stroke-miterlimit:10;}
	.st36{opacity:0.77;}
	.st37{fill:none;stroke:#1A1F3D;stroke-width:5.5;stroke-linecap:round;stroke-miterlimit:10;}
	.st38{fill:#1A1F3D;stroke:#1A1F3D;stroke-width:2;stroke-miterlimit:10;}
	.st39{fill:#1A1F3D;stroke:#1A1F3D;stroke-width:1.0745;stroke-miterlimit:10;}
	.st40{fill:none;stroke:#1A1F3D;stroke-width:2;stroke-linecap:round;stroke-linejoin:round;stroke-miterlimit:10;}
	.st41{opacity:0.8;fill:none;stroke:#6E0FF5;stroke-width:4;stroke-linecap:round;stroke-linejoin:round;stroke-miterlimit:10;}
	.st42{fill:none;stroke:#6E0FF5;stroke-width:4;stroke-linecap:round;stroke-linejoin:round;stroke-miterlimit:10;}
	.st43{fill:none;stroke:#1A1F3D;stroke-width:5.689;stroke-linecap:round;stroke-linejoin:round;stroke-miterlimit:10;}
	.st44{fill:none;stroke:#1A1F3D;stroke-width:4.6485;stroke-linecap:round;stroke-linejoin:round;stroke-miterlimit:10;}
	.st45{fill:none;stroke:#1A1F3D;stroke-width:5.1375;stroke-linecap:round;stroke-linejoin:round;stroke-miterlimit:10;}
	.st46{opacity:0.7;fill:#6E0FF5;}
	.st47{opacity:0.6;}
	.st48{fill:none;stroke:#FFFFFF;stroke-miterlimit:10;}
	.st49{fill:none;stroke:#FFFFFF;stroke-width:1.3538;stroke-miterlimit:10;}
	.st50{fill:none;stroke:#1A1F3D;stroke-width:2.5;stroke-linecap:round;stroke-linejoin:round;stroke-miterlimit:10;}
	.st51{fill:#6E0FF5;stroke:#FFFFFF;}
	.st52{fill:#FF7BA7;stroke:#FFFFFF;}
	.st53{fill:none;stroke:#6E0FF5;stroke-width:1.5;stroke-linecap:round;stroke-linejoin:round;stroke-miterlimit:10;}
	.st54{fill:none;stroke:#FFFFFF;stroke-width:2.6741;stroke-linecap:round;stroke-linejoin:round;stroke-miterlimit:10;}
	.st55{fill:none;stroke:#6E0FF5;stroke-width:1.044;stroke-linecap:round;stroke-linejoin:round;stroke-miterlimit:10;}
	.st56{fill:none;stroke:#FFFFFF;stroke-width:1.4491;stroke-linecap:round;stroke-linejoin:round;stroke-miterlimit:10;}
	.st57{fill:#F9F8FC;}
	.st58{fill:none;stroke:#F55364;stroke-width:3.4233;stroke-linecap:round;stroke-linejoin:round;stroke-miterlimit:10;}
	.st59{fill:none;stroke:#A064FF;stroke-width:1.7464;stroke-linecap:round;stroke-miterlimit:10;}
	.st60{opacity:0.36;fill:#FFFFFF;}
	.st61{fill:#6E0FF5;stroke:#FFFFFF;stroke-width:2.5246;}
	.st62{fill:#FF7BA7;stroke:#FFFFFF;stroke-width:2.5246;}
	.st63{fill:none;stroke:#FFFFFF;stroke-width:0.383;stroke-miterlimit:10;}
	.st64{clip-path:url(#SVGID_00000165953804769839239770000018193391278988715180_);fill:#6E0FF5;}
	.st65{fill:none;stroke:#FFFFFF;stroke-width:1.9143;stroke-linecap:round;stroke-linejoin:round;stroke-miterlimit:10;}
	.st66{fill:none;stroke:#FFFFFF;stroke-width:1.568;stroke-linecap:round;stroke-linejoin:round;stroke-miterlimit:10;}
	.st67{fill:none;stroke:#FFFFFF;stroke-width:2.6853;stroke-linecap:round;stroke-linejoin:round;stroke-miterlimit:10;}
	.st68{fill:none;stroke:#FFFFFF;stroke-width:1.4843;stroke-miterlimit:10;}
	.st69{fill:none;stroke:#6E0FF5;stroke-width:1.27;stroke-linecap:round;stroke-miterlimit:10;}
	.st70{fill:none;stroke:#FFFFFF;stroke-width:2.5795;stroke-linecap:round;stroke-linejoin:round;stroke-miterlimit:10;}
	.st71{fill:none;stroke:#FFFFFF;stroke-width:2.5857;stroke-linecap:round;stroke-linejoin:round;stroke-miterlimit:10;}
	.st72{fill:#1A1F3D;stroke:#1A1E3C;stroke-width:0.4036;stroke-miterlimit:10;}
	
		.st73{opacity:0.99;fill:none;stroke:#1A1F3D;stroke-width:2.4025;stroke-linecap:round;stroke-linejoin:round;stroke-miterlimit:10;enable-background:new    ;}
	.st74{fill:none;stroke:#1A1F3D;stroke-width:2.4025;stroke-linecap:round;stroke-linejoin:round;stroke-miterlimit:10;}
	.st75{fill:none;stroke:#6E0FF5;stroke-width:4.3151;stroke-linecap:round;stroke-linejoin:round;stroke-miterlimit:10;}
	.st76{fill:#1A1F3D;stroke:#1A1E3C;stroke-width:0.5381;stroke-miterlimit:10;}
	.st77{fill:none;stroke:#FFFFFF;stroke-width:3.6183;stroke-linecap:round;stroke-linejoin:round;stroke-miterlimit:10;}
	.st78{fill:none;stroke:#1A1F3D;stroke-width:2.4025;stroke-miterlimit:10;}
	.st79{fill:#1A1F3D;stroke:#1A1E3C;stroke-width:0.269;stroke-miterlimit:10;}
	.st80{fill:none;stroke:#A064FF;stroke-width:2.3533;stroke-linecap:round;stroke-miterlimit:10;}
	.st81{fill:#6E0FF5;stroke:#FFFFFF;stroke-width:3.4018;}
	.st82{fill:#FF7BA7;stroke:#FFFFFF;stroke-width:3.4018;}
	.st83{fill:none;stroke:#FFFFFF;stroke-width:0.3813;stroke-miterlimit:10;}
	.st84{fill:none;stroke:#FFFFFF;stroke-width:0.5161;stroke-miterlimit:10;}
	.st85{fill:none;stroke:#6E0FF5;stroke-width:1.1565;stroke-linecap:round;stroke-linejoin:round;stroke-miterlimit:10;}
	.st86{fill:none;stroke:#FFFFFF;stroke-width:1.8576;stroke-linecap:round;stroke-linejoin:round;stroke-miterlimit:10;}
	.st87{fill:#1A1F3D;stroke:#1A1E3C;stroke-width:0.2607;stroke-miterlimit:10;}
	.st88{fill:none;stroke:#1A1F3D;stroke-width:2.6392;stroke-linecap:round;stroke-linejoin:round;stroke-miterlimit:10;}
	.st89{fill:none;stroke:#1A1F3D;stroke-width:2.9169;stroke-linecap:round;stroke-linejoin:round;stroke-miterlimit:10;}
	.st90{clip-path:url(#SVGID_00000067954159396667236110000014185295868699577528_);fill:#6E0FF5;}
	.st91{fill:none;stroke:#FFFFFF;stroke-width:2;stroke-miterlimit:10;}
	.st92{fill:none;stroke:#6E0FF5;stroke-width:1.7113;stroke-linecap:round;stroke-miterlimit:10;}
	.st93{fill:none;stroke:#6E0FF5;stroke-width:4.3788;stroke-linecap:round;stroke-linejoin:round;stroke-miterlimit:10;}
	.st94{fill:#1A1F3D;stroke:#1A1E3C;stroke-width:0.3456;stroke-miterlimit:10;}
	.st95{fill:#1A1F3D;stroke:#1A1E3C;stroke-width:0.297;stroke-miterlimit:10;}
	.st96{fill:none;stroke:#FFFFFF;stroke-width:1.919;stroke-linecap:round;stroke-linejoin:round;stroke-miterlimit:10;}
	.st97{fill:none;stroke:#FFFFFF;stroke-width:0.2829;stroke-miterlimit:10;}
	.st98{fill:none;stroke:#1A1F3D;stroke-miterlimit:10;}
	.st99{fill:#CFB0FC;}
	.st100{fill:none;stroke:#1A1F3D;stroke-width:5.3;stroke-linecap:round;stroke-linejoin:round;stroke-miterlimit:10;}
	.st101{fill:none;stroke:#1A1F3D;stroke-width:5.2;stroke-linecap:round;stroke-linejoin:round;stroke-miterlimit:10;}
	.st102{fill:#6E0FF5;stroke:#6E0FF5;stroke-width:1.2;stroke-miterlimit:10;}
	.st103{fill:none;stroke:#6E0FF5;stroke-width:4.4;stroke-linecap:round;stroke-linejoin:round;stroke-miterlimit:10;}
	.st104{fill:#6E0FF5;stroke:#6E0FF5;stroke-miterlimit:10;}
	
		.st105{opacity:0.99;fill:none;stroke:#6E0FF5;stroke-width:4.3788;stroke-linecap:round;stroke-linejoin:round;stroke-miterlimit:10;enable-background:new    ;}
	
		.st106{opacity:0.99;fill:none;stroke:#6E0FF5;stroke-width:2;stroke-linecap:round;stroke-linejoin:round;stroke-miterlimit:10;enable-background:new    ;}
	.st107{fill:#FFFFFF;stroke:#6E0FF5;stroke-width:3.3127;stroke-linecap:round;stroke-linejoin:round;stroke-miterlimit:10;}
	.st108{fill:none;stroke:#6E0FF5;stroke-width:3;stroke-linecap:round;stroke-linejoin:round;stroke-miterlimit:10;}
	.st109{fill:none;stroke:#000000;stroke-width:3.818;stroke-linecap:round;stroke-linejoin:round;}
	.st110{fill:#EC1A3C;}
	.st111{opacity:0.99;enable-background:new    ;}
	.st112{fill:#6E0FF5;stroke:#6E0FF5;stroke-width:1.1847;stroke-miterlimit:10;}
	.st113{fill:none;stroke:#6E0FF5;stroke-width:3.9353;stroke-linecap:round;stroke-linejoin:round;stroke-miterlimit:10;}
	.st114{fill:none;stroke:#6E0FF5;stroke-width:3.6392;stroke-linecap:round;stroke-linejoin:round;stroke-miterlimit:10;}
	.st115{fill:none;stroke:#6E0FF5;stroke-width:3.636;stroke-linecap:round;stroke-linejoin:round;stroke-miterlimit:10;}
	.st116{fill:none;stroke:#6E0FF5;stroke-width:3.5093;stroke-linecap:round;stroke-linejoin:round;stroke-miterlimit:10;}
</style>
<g id="Layer_1">
</g>
<g id="Isolation_Mode">
</g>
<g id="Layer_3">
	<g>
		<path id="Stroke-1_3_" class="st115" d="M41.2,27.1h-7.5c-2.8,0-5-2.2-5-5c0-2.8,2.2-5,5-5h7.5"/>
		<path id="Stroke-5_00000178188052122206908850000012781366600529057676_" class="st115" d="M5.8,14.9c0.4-5,4.6-8.9,9.7-8.9h16
			c5.4,0,9.7,4.4,9.7,9.7V29c0,5.4-4.4,9.7-9.7,9.7h-4.4"/>
		<circle class="st0" cx="33.7" cy="22.1" r="1.6"/>
	</g>
	<g>
		<g>
			<g>
				<g>
					<path class="st0" d="M15.9,32.5c-0.5,0.5-1.1,0.9-2,1V35c0,0.4-0.3,0.7-0.7,0.7h0c-0.4,0-0.7-0.3-0.7-0.7v-1.5
						c-1-0.1-1.8-0.3-2.5-0.8c-0.4-0.3-0.4-0.8-0.1-1.1l0,0c0.3-0.3,0.7-0.3,1-0.1c0.6,0.4,1.3,0.6,2,0.6c0.5,0,1-0.1,1.3-0.4
						c0.3-0.3,0.5-0.6,0.5-1.1c0-0.3-0.1-0.5-0.2-0.7c-0.1-0.2-0.3-0.4-0.6-0.5c-0.3-0.1-0.7-0.3-1.2-0.5c-1.1-0.3-1.8-0.7-2.3-1.2
						C10,27.4,9.7,26.8,9.7,26c0-0.7,0.2-1.3,0.7-1.8c0.5-0.5,1.2-0.8,2-0.9v-1.5c0-0.4,0.3-0.7,0.7-0.7h0c0.4,0,0.7,0.3,0.7,0.7
						v1.5c0.5,0.1,0.9,0.2,1.3,0.4c0.2,0.1,0.3,0.2,0.4,0.3c0.4,0.2,0.4,0.8,0.1,1.1h0c-0.2,0.3-0.6,0.3-0.9,0.1
						c-0.2-0.1-0.4-0.2-0.5-0.3c-0.4-0.1-0.7-0.2-1.2-0.2c-0.5,0-0.8,0.1-1.1,0.3c-0.3,0.2-0.4,0.5-0.4,0.9c0,0.2,0.1,0.5,0.2,0.6
						c0.1,0.2,0.3,0.3,0.6,0.5c0.3,0.1,0.7,0.3,1.3,0.5c1,0.3,1.7,0.7,2.2,1.1c0.5,0.5,0.7,1.1,0.7,2C16.6,31.3,16.4,32,15.9,32.5z"
						/>
				</g>
			</g>
		</g>
		<g>
			<path class="st0" d="M13.3,41.4c-7.1,0-12.9-5.8-12.9-12.9s5.8-12.9,12.9-12.9c2,0,3.8,0.4,5.6,1.3c0.5,0.2,0.8,0.6,1,1.1
				c0.2,0.5,0.1,1-0.1,1.5c-0.2,0.5-0.6,0.8-1.1,1c-0.2,0.1-0.4,0.1-0.6,0.1c-0.3,0-0.6-0.1-0.8-0.2c-1.2-0.6-2.6-0.9-3.9-0.9
				c-5,0-9.1,4.1-9.1,9.1s4.1,9.1,9.1,9.1c3.3,0,6.3-1.8,7.9-4.6c-0.5,0-0.9-0.2-1.3-0.5c-0.4-0.4-0.6-0.9-0.6-1.4
				c0-0.5,0.2-1,0.6-1.3l2.7-2.7c0.4-0.4,0.8-0.6,1.3-0.6c0.1,0,0.3,0,0.4,0c0.4,0.1,0.7,0.3,0.9,0.5l2.7,2.7c0.7,0.7,0.7,1.9,0,2.7
				c-0.4,0.4-0.8,0.6-1.3,0.6c-0.4,0-0.8-0.1-1.1-0.3C23.7,37.9,18.8,41.4,13.3,41.4z"/>
			<path class="st3" d="M13.3,15.9c1.9,0,3.7,0.4,5.4,1.2c0.8,0.4,1.1,1.3,0.7,2c-0.2,0.4-0.5,0.6-0.9,0.8c-0.2,0.1-0.3,0.1-0.5,0.1
				c-0.2,0-0.5-0.1-0.7-0.2c-1.3-0.6-2.7-0.9-4.1-0.9c-5.2,0-9.5,4.3-9.5,9.5c0,5.2,4.3,9.5,9.5,9.5c3.8,0,7.1-2.2,8.6-5.6
				c-0.2,0.1-0.5,0.2-0.7,0.2c-0.4,0-0.8-0.1-1-0.4c-0.3-0.3-0.4-0.7-0.4-1.1c0-0.4,0.2-0.8,0.4-1l2.7-2.7c0.3-0.3,0.6-0.4,1-0.4
				c0.1,0,0.2,0,0.3,0c0.3,0.1,0.5,0.2,0.7,0.4l2.7,2.7c0.6,0.6,0.6,1.5,0,2.1c-0.3,0.3-0.6,0.4-1,0.4c-0.4,0-0.8-0.2-1.1-0.4
				l-0.2-0.2c-1.5,5.3-6.5,9.1-12,9.1C6.4,41,0.8,35.4,0.8,28.5S6.4,15.9,13.3,15.9 M13.3,15.1c-7.4,0-13.4,6-13.4,13.4
				s6,13.4,13.4,13.4c5.5,0,10.5-3.5,12.5-8.6c0.3,0.1,0.5,0.2,0.8,0.2c0.6,0,1.2-0.2,1.7-0.7c0.9-0.9,0.9-2.4,0-3.2l-2.7-2.7
				c-0.3-0.3-0.7-0.5-1.1-0.6c-0.2,0-0.3-0.1-0.5-0.1c-0.6,0-1.2,0.2-1.6,0.7l-2.7,2.7c-0.4,0.4-0.7,1-0.7,1.6
				c0,0.6,0.2,1.2,0.7,1.7c0.3,0.3,0.6,0.5,0.9,0.6c-1.6,2.4-4.3,3.8-7.2,3.8c-4.8,0-8.6-3.9-8.6-8.6c0-4.8,3.9-8.6,8.6-8.6
				c1.3,0,2.6,0.3,3.8,0.9c0.3,0.2,0.7,0.2,1,0.2c0.3,0,0.5,0,0.8-0.1c0.6-0.2,1.1-0.6,1.3-1.2c0.3-0.6,0.3-1.2,0.1-1.8
				c-0.2-0.6-0.6-1.1-1.2-1.4C17.2,15.5,15.3,15.1,13.3,15.1L13.3,15.1z"/>
		</g>
	</g>
</g>
</svg>
