<?xml version="1.0" encoding="UTF-8"?>
<svg id="Layer_3" data-name="Layer 3" xmlns="http://www.w3.org/2000/svg" viewBox="0 0 45.39 45.29">
  <text transform="translate(1.1 6.22)" font-family="MyriadPro-Regular, &apos;Myriad Pro&apos;" font-size="4.66"><tspan x="0" y="0">03</tspan></text>
  <g>
    <path id="Stroke-1" d="m41.23,27.07h-7.51c-2.76,0-4.99-2.23-4.99-4.99s2.23-4.99,4.99-4.99h7.51" fill="none" stroke="#6e0ff5" stroke-linecap="round" stroke-linejoin="round" stroke-width="3.64"/>
    <path id="Stroke-5" d="m5.77,14.86c.41-5,4.59-8.93,9.7-8.93h16.03c5.37,0,9.73,4.36,9.73,9.73v13.31c0,5.37-4.36,9.73-9.73,9.73h-4.38" fill="none" stroke="#6e0ff5" stroke-linecap="round" stroke-linejoin="round" stroke-width="3.64"/>
    <circle cx="33.68" cy="22.08" r="1.58" fill="#6e0ff5" stroke-width="0"/>
  </g>
  <g>
    <path d="m15.93,32.48c-.47.52-1.14.86-2,1.02v1.54c0,.4-.33.73-.73.73h0c-.4,0-.73-.33-.73-.73v-1.47c-.95-.06-1.78-.33-2.47-.8-.37-.25-.44-.78-.13-1.11h0c.25-.28.67-.35.98-.14.6.41,1.27.61,2.01.61.54,0,.98-.13,1.32-.39.34-.26.5-.62.5-1.08,0-.29-.06-.52-.17-.71-.11-.19-.31-.36-.59-.5-.28-.15-.68-.3-1.2-.46-1.06-.32-1.82-.71-2.28-1.17-.46-.46-.7-1.06-.7-1.79s.25-1.32.75-1.8c.5-.48,1.16-.77,1.98-.88v-1.45c0-.4.33-.73.73-.73h0c.4,0,.73.33.73.73v1.45c.49.07.94.2,1.33.39.15.07.3.16.44.25.37.25.44.77.15,1.1h0c-.24.27-.64.32-.94.13-.17-.11-.35-.2-.54-.28-.36-.14-.74-.21-1.16-.21-.45,0-.82.1-1.1.3s-.42.49-.42.87c0,.25.06.45.17.62.11.16.31.32.6.46.29.14.71.3,1.26.47.98.31,1.71.69,2.19,1.14.48.45.73,1.11.73,1.97,0,.76-.24,1.4-.71,1.92Z" fill="#6e0ff5" stroke-width="0"/>
    <g>
      <path d="m13.28,41.41c-7.14,0-12.94-5.81-12.94-12.94s5.81-12.94,12.94-12.94c1.95,0,3.84.43,5.62,1.28.47.23.82.62.99,1.11.17.49.14,1.02-.09,1.48-.22.46-.61.81-1.1.98-.21.07-.42.11-.64.11-.29,0-.58-.07-.84-.19-1.23-.59-2.56-.89-3.93-.89-5,0-9.06,4.07-9.06,9.06s4.06,9.06,9.06,9.06c3.27,0,6.27-1.76,7.87-4.56-.49,0-.95-.2-1.3-.54-.37-.38-.56-.86-.56-1.37,0-.5.2-.97.56-1.31l2.67-2.67c.36-.36.82-.55,1.32-.55.14,0,.28.01.42.04.36.08.69.26.94.51l2.72,2.72c.73.73.73,1.93,0,2.66-.35.36-.82.56-1.33.56-.41-.01-.77-.13-1.08-.33-1.79,5.17-6.72,8.72-12.23,8.72Z" fill="#6e0ff5" stroke-width="0"/>
      <path d="m13.28,15.94c1.89,0,3.72.42,5.44,1.24.76.37,1.07,1.28.7,2.04-.17.36-.48.63-.86.77-.16.06-.33.09-.5.09-.23,0-.45-.05-.66-.15-1.29-.62-2.67-.93-4.12-.93-5.23,0-9.48,4.25-9.48,9.48s4.25,9.48,9.48,9.48c3.79,0,7.14-2.23,8.65-5.6-.23.13-.49.2-.75.2-.38,0-.75-.14-1.04-.42-.28-.29-.44-.67-.43-1.06,0-.39.16-.75.43-1.02l2.68-2.68c.28-.28.63-.43,1.03-.43.11,0,.22.01.33.03.28.06.53.2.73.4l2.72,2.72c.57.57.57,1.5,0,2.07-.27.28-.64.43-1.03.44-.4-.01-.77-.15-1.05-.44l-.22-.23c-1.53,5.29-6.47,9.05-12.03,9.05-6.91,0-12.53-5.62-12.53-12.53s5.62-12.53,12.53-12.53m0-.83C5.91,15.1-.08,21.1-.08,28.46s5.99,13.36,13.36,13.36c5.52,0,10.49-3.46,12.46-8.55.26.1.53.16.82.16.64,0,1.22-.25,1.65-.69.89-.89.89-2.35,0-3.25l-2.72-2.72c-.31-.31-.7-.52-1.14-.62-.18-.04-.35-.05-.51-.05-.61,0-1.18.24-1.62.68l-2.67,2.67c-.43.42-.67.99-.68,1.6,0,.62.23,1.21.67,1.66.27.26.58.45.92.56-1.58,2.37-4.27,3.84-7.19,3.84-4.77,0-8.65-3.88-8.65-8.65s3.88-8.65,8.65-8.65c1.32,0,2.58.29,3.75.85.32.16.67.24,1.02.24.26,0,.53-.04.78-.13.59-.21,1.07-.63,1.34-1.2.27-.56.31-1.2.1-1.8-.21-.6-.63-1.08-1.2-1.35-1.84-.88-3.79-1.33-5.8-1.33h0Z" fill="#fff" stroke-width="0"/>
    </g>
  </g>
</svg>