<?xml version="1.0" encoding="UTF-8"?>
<svg id="Layer_1" data-name="Layer 1" xmlns="http://www.w3.org/2000/svg" viewBox="0 0 45.39 45.29">
  <path id="Stroke-4" d="m31.2,2.2H14.11c-6.14.05-9.93,4.08-9.93,10.24v20.44c0,6.19,3.83,10.24,10.01,10.24h17.09c6.13-.04,9.93-4.07,9.93-10.23V12.44c0-6.19-3.83-10.24-10.02-10.24Z" fill="none" stroke="#6e0ff5" stroke-linecap="round" stroke-linejoin="round" stroke-width="4.32"/>
  <g id="Iconly_Two-tone_Document" data-name="Iconly Two-tone Document">
    <g id="Document">
      <line id="Stroke-1" x1="32.48" y1="14.17" x2="20.99" y2="14.17" fill="none" isolation="isolate" opacity=".99" stroke="#6e0ff5" stroke-linecap="round" stroke-linejoin="round" stroke-width="4.38"/>
    </g>
  </g>
  <g id="Iconly_Two-tone_Document-2" data-name="Iconly Two-tone Document">
    <g id="Document-2" data-name="Document">
      <line id="Stroke-1-2" data-name="Stroke-1" x1="32.48" y1="23.65" x2="21.04" y2="23.65" fill="none" isolation="isolate" opacity=".99" stroke="#6e0ff5" stroke-linecap="round" stroke-linejoin="round" stroke-width="4.38"/>
    </g>
  </g>
  <rect x="10" y="20.72" width="5.84" height="5.86" rx="1.16" ry="1.16" fill="none" isolation="isolate" opacity=".99" stroke="#6e0ff5" stroke-linecap="round" stroke-linejoin="round" stroke-width="2"/>
  <rect x="10" y="11.24" width="5.84" height="5.86" rx="1.16" ry="1.16" fill="none" isolation="isolate" opacity=".99" stroke="#6e0ff5" stroke-linecap="round" stroke-linejoin="round" stroke-width="2"/>
  <g id="Iconly_Two-tone_Document-3" data-name="Iconly Two-tone Document">
    <g id="Document-3" data-name="Document">
      <line id="Stroke-1-3" data-name="Stroke-1" x1="32.48" y1="33.12" x2="20.99" y2="33.12" fill="none" isolation="isolate" opacity=".99" stroke="#6e0ff5" stroke-linecap="round" stroke-linejoin="round" stroke-width="4.38"/>
    </g>
  </g>
  <polyline points="10.45 32.88 12.48 35.19 15.42 31.12" fill="none" isolation="isolate" opacity=".99" stroke="#6e0ff5" stroke-linecap="round" stroke-linejoin="round" stroke-width="2"/>
</svg>