<?xml version="1.0" encoding="UTF-8"?>
<svg id="Layer_1" data-name="Layer 1" xmlns="http://www.w3.org/2000/svg" viewBox="0 0 44 45.29">
  <path d="m19.71,45.2c-4.53,0-8.81-.07-11.43-.3C3.14,44.46.07,40.43.06,34.14c0-1.06.41-2.06,1.16-2.82.76-.76,1.76-1.18,2.84-1.18h24.24c2.66,0,4.92,2.07,5.15,4.7.3,3.53,1.63,5.75,3.46,5.82.26,0,.5-.01.7-.02,1.54-.13,2.18-.8,2.26-1.16.12-.8.02-5.75-.16-9.86,0-.03,0-.06,0-.09V2.63c0-1.18.96-2.14,2.14-2.14s2.14.96,2.14,2.14v26.87c.12,2.83.36,9.43.08,10.84-.36,1.8-1.84,3.58-4.44,4.3-.29.17-.63.27-.99.28-.09,0-.37.01-.81.02-.29.02-.58.03-.89.02-3.24.08-10.52.25-17.24.25Zm-15.36-10.77c.07,3.88,1.52,5.96,4.3,6.2,4.57.39,14.82.3,22.03.17-.75-1.43-1.29-3.26-1.49-5.58-.04-.44-.43-.79-.89-.79H4.35Z" fill="#6e0ff5"/>
  <path d="m10.04,23.64c-1.18,0-2.14-.96-2.14-2.14V5.89c0-.61,0-3.66.08-4.11.2-1.17,1.3-1.95,2.47-1.75,1.12.19,1.88,1.21,1.77,2.32-.02.45-.04,3.11-.04,3.54v15.61c0,1.18-.96,2.14-2.14,2.14Z" fill="#6e0ff5"/>
  <path d="m35.2,16.21h-18.45c-1.18,0-2.14-.96-2.14-2.14s.96-2.14,2.14-2.14h18.45c1.18,0,2.14.96,2.14,2.14s-.96,2.14-2.14,2.14Z" fill="#6e0ff5"/>
  <path d="m29.86,25.57h-13.11c-1.18,0-2.14-.96-2.14-2.14s.96-2.14,2.14-2.14h13.11c1.18,0,2.14.96,2.14,2.14s-.96,2.14-2.14,2.14Z" fill="#6e0ff5"/>
  <path d="m36.69,9.5c-.84,0-1.64-.35-2.25-.97l-3.21-3.43-3.19,3.41c-.5.53-1.24.84-2.03.84s-1.53-.3-2.02-.84l-3.19-3.41-3.19,3.41c-1.26,1.3-3.31,1.28-4.52.02l-4.48-4.79c-.81-.86-.76-2.22.1-3.03.86-.81,2.22-.76,3.03.1l3.6,3.85,3.6-3.85c.97-1.04,2.75-1.03,3.71,0l3.36,3.59,3.36-3.59c.97-1.03,2.75-1.04,3.72,0l3.6,3.85,3.6-3.85c.81-.86,2.16-.91,3.03-.1.86.81.91,2.16.1,3.03l-4.46,4.76c-.63.65-1.43,1-2.27,1Z" fill="#6e0ff5"/>
</svg>