<?xml version="1.0" encoding="UTF-8"?>
<svg id="Layer_1" data-name="Layer 1" xmlns="http://www.w3.org/2000/svg" viewBox="0 0 45.39 45.29">
  <g>
    <path d="m24.14,24.14c-.76,0-1.37-.61-1.37-1.37v-10.48c0-.76.61-1.37,1.37-1.37s1.37.61,1.37,1.37v10.48c0,.76-.61,1.37-1.37,1.37Z" fill="#6e0ff5"/>
    <path d="m29.38,33.16h-15.55c-.76,0-1.37-.61-1.37-1.37s.61-1.37,1.37-1.37h15.55c.76,0,1.37.61,1.37,1.37s-.61,1.37-1.37,1.37Z" fill="#6e0ff5"/>
    <path d="m20.41,24.14c-.76,0-1.37-.61-1.37-1.37v-10.48c0-.76.61-1.37,1.37-1.37s1.37.61,1.37,1.37v10.48c0,.76-.61,1.37-1.37,1.37Z" fill="#6e0ff5"/>
    <path d="m22.27,33.16c-5.26,0-9.53-4.28-9.53-9.53s4.28-9.53,9.53-9.53c3.84,0,7.29,2.28,8.78,5.82.5,1.18.75,2.42.75,3.71,0,.76-.61,1.37-1.37,1.37s-1.37-.61-1.37-1.37c0-.92-.18-1.81-.53-2.64-1.07-2.52-3.52-4.15-6.26-4.15-3.74,0-6.79,3.05-6.79,6.79s3.05,6.79,6.79,6.79c.76,0,1.37.61,1.37,1.37s-.61,1.37-1.37,1.37Z" fill="#6e0ff5"/>
  </g>
  <path d="m22.69,45.29C10.21,45.29.05,35.13.05,22.65S10.21,0,22.69,0s22.65,10.16,22.65,22.65-10.16,22.65-22.65,22.65Zm0-41.25C12.44,4.04,4.09,12.39,4.09,22.65s8.35,18.6,18.6,18.6,18.61-8.35,18.61-18.6S32.95,4.04,22.69,4.04Z" fill="#6e0ff5"/>
</svg>