<?xml version="1.0" encoding="UTF-8"?>
<svg id="Layer_1" data-name="Layer 1" xmlns="http://www.w3.org/2000/svg" viewBox="0 0 45.39 45.29">
  <path d="m44.83,12.33c-.39-1.62-.78-3.23-1.18-4.85-.36-1.45-.72-2.89-1.1-4.33C42.04,1.21,40.48,0,38.47,0,28,0,17.54,0,7.07,0c-1.97,0-3.56,1.22-4.05,3.09-.95,3.7-1.81,7.08-2.61,10.35-.5,2.02-.19,4.11.91,6.2l.08.15c.14.28.31.6.54.88.34.41.41.87.41,1.49-.02,4.81-.02,9.63-.01,14.44v4.1c0,2.32,1.07,3.75,3.26,4.38l.13.11h33.97l.3-.09c.17-.05.33-.1.5-.16,1.64-.59,2.7-2.1,2.71-3.85.02-4.31.01-8.61,0-12.92,0-.61-.23-1.18-.64-1.58-.41-.4-.96-.63-1.57-.62-1.24.01-2.14.96-2.14,2.25,0,2.92,0,5.85,0,8.77v3.67c0,.08,0,.16,0,.27-.69-.01-1.38,0-2.07,0h-6.61s0-3.58,0-3.58v-7.35c0-1.65-.83-2.49-2.48-2.49h-9.87c-1.6,0-2.44.84-2.44,2.44v8.3s0,2.68,0,2.68H6.72s-.01,0-.02,0c0-5.06,0-10.11,0-15.17v-1.61c3.65.96,6.8.04,9.39-2.72,1.63,1.95,3.99,3.06,6.6,3.09,2.65.02,5.14-1.1,6.88-3.11,2.51,2.74,5.64,3.7,9.06,2.79,3.43-.91,5.7-3.33,6.57-6.98.05-.2.08-.39.12-.59l.05-.26v-1.67s-.54-2.37-.54-2.37Zm-17.42-5.26c0,2.83,0,5.66,0,8.48-.01,2.15-1.47,4.06-3.47,4.54-1.23.29-2.49.07-3.54-.64-1.06-.71-1.77-1.85-1.96-3.11-.05-.35-.08-.65-.08-.93,0-3.18,0-6.36,0-9.55v-1.58h9.05v2.79Zm-1.61,24.82v9.01h-6.02v-9.01h6.02ZM14,7.18c0,2.75,0,5.5,0,8.24,0,2.37-1.72,4.41-3.98,4.74-1.62.24-3.18-.32-4.27-1.52-1.09-1.2-1.49-2.8-1.1-4.38.45-1.85.92-3.69,1.38-5.53.37-1.45.73-2.9,1.09-4.35.02-.07.03-.1.03-.12.02,0,.06-.02.13-.01,1.7.01,3.4.01,5.1,0h1.63s0,2.92,0,2.92Zm26.29,10.91c-.75,1.11-1.89,1.86-3.15,2.07-1.27.2-2.54-.11-3.58-.89-1.03-.77-1.68-1.88-1.84-3.13-.03-.23-.05-.46-.06-.69,0-3.73,0-7.46,0-11.2h1.8c1.6,0,3.21,0,4.81,0h0c.07,0,.1,0,.11,0,0,.02.02.05.04.12.3,1.23.61,2.45.93,3.68.55,2.15,1.11,4.38,1.62,6.58.26,1.15.01,2.41-.7,3.47Z" fill="#6e0ff5"/>
</svg>