<?xml version="1.0" encoding="UTF-8"?>
<svg id="Layer_1" data-name="Layer 1" xmlns="http://www.w3.org/2000/svg" viewBox="0 0 42.68 45.29">
  <g id="Document">
    <g id="Stroke-4">
      <path d="m13.28,45.2c-7.82,0-13.28-5.55-13.28-13.49v-15.84C0,7.85,5.29,2.43,13.17,2.37h16.22c7.82,0,13.28,5.55,13.29,13.5v15.85c0,7.89-5.42,13.44-13.18,13.49H13.28Zm-.09-38.78c-5.63.04-9.13,3.66-9.13,9.44v15.84c0,5.73,3.62,9.44,9.23,9.44h16.2c5.55-.03,9.14-3.74,9.14-9.43v-15.85c0-5.73-3.62-9.44-9.23-9.44H13.19Z" fill="#6e0ff5"/>
    </g>
  </g>
  <path d="m38.5,20.67H4.59c-1.12,0-2.03-.91-2.03-2.03s.91-2.03,2.03-2.03h33.91c1.12,0,2.03.91,2.03,2.03s-.91,2.03-2.03,2.03Z" fill="#6e0ff5"/>
  <g>
    <path d="m13.92,12.36c-1.12,0-2.03-.91-2.03-2.03V2.03c0-1.12.91-2.03,2.03-2.03s2.03.91,2.03,2.03v8.3c0,1.12-.91,2.03-2.03,2.03Z" fill="#6e0ff5"/>
    <path d="m28.83,12.36c-1.12,0-2.03-.91-2.03-2.03V2.03c0-1.12.91-2.03,2.03-2.03s2.03.91,2.03,2.03v8.3c0,1.12-.91,2.03-2.03,2.03Z" fill="#6e0ff5"/>
  </g>
  <g>
    <rect x="10.05" y="25.15" width="3.97" height="3.97" rx=".65" ry=".65" fill="#6e0ff5"/>
    <rect x="10.05" y="32.06" width="3.97" height="3.97" rx=".65" ry=".65" fill="#6e0ff5"/>
  </g>
  <rect x="30.42" y="25.15" width="3.97" height="3.97" rx=".65" ry=".65" fill="#6e0ff5"/>
  <g>
    <rect x="20.24" y="25.15" width="3.97" height="3.97" rx=".65" ry=".65" fill="#6e0ff5"/>
    <rect x="20.24" y="32.06" width="3.97" height="3.97" rx=".65" ry=".65" fill="#6e0ff5"/>
  </g>
</svg>