<?xml version="1.0" encoding="UTF-8"?>
<svg id="Layer_1" data-name="Layer 1" xmlns="http://www.w3.org/2000/svg" viewBox="0 0 39.42 45.29">
  <path d="m19.77,14.5c-1.12,0-2.03.91-2.03,2.03v9.37c0,.77.43,1.47,1.12,1.81l7.57,3.81c.28.14.6.22.91.22.77,0,1.47-.43,1.81-1.12.24-.48.28-1.03.11-1.55-.17-.52-.53-.93-1.01-1.18l-6.46-3.25v-8.12c0-1.12-.91-2.03-2.03-2.03Z" fill="#6e0ff5"/>
  <path d="m37.41,23.52c-1.12,0-2.03.91-2.03,2.03,0,.77-.06,1.56-.17,2.37-.03.25-.07.49-.14.76-.16.8-.37,1.52-.62,2.2-.09.25-.19.5-.28.73-.2.44-.4.89-.63,1.32-.04.05-.08.11-.1.15-.06.12-.14.24-.21.37l-.11.19c-.62,1.03-1.39,2.02-2.3,2.94-2.95,2.95-6.88,4.58-11.05,4.58-7.57,0-14.19-5.62-15.42-13.1v-.02s-.02-.15-.02-.15c-.03-.15-.04-.29-.06-.42l-.05-.49c-.02-.13-.03-.25-.03-.38l-.02-.32c-.01-.26-.03-.5-.03-.75s.01-.48.03-.72v-.09c.44-8.29,7.29-14.78,15.6-14.78,3.16,0,6.19.93,8.78,2.7l-.33.27c-.45.36-.66.91-.57,1.47.09.54.45.98.96,1.17l5.68,2.24c.53.2,1.1.11,1.54-.24.43-.34.64-.87.56-1.42l-.91-6.05c-.09-.56-.45-1.01-.97-1.21-.51-.2-1.07-.11-1.52.23l-1.16.93c-1.68-1.31-3.55-2.34-5.56-3.06-1.49-.51-2.99-.84-4.47-.99v-1.92h4.83c1.12,0,2.03-.91,2.03-2.03S27.75,0,26.63,0h-12.88C12.63,0,11.72.91,11.72,2.03s.91,2.03,2.03,2.03h4v1.9C9.29,6.84,2.23,13.23.53,21.58c-.27,1.28-.4,2.58-.4,3.97v.47c.02.51.05,1.02.1,1.51,0,.06.01.11.01.17,0,.06,0,.13.02.22.02.08.03.16.04.25.01.08.02.17.03.2,0,.05,0,.09.02.2,1.19,7.57,6.73,13.81,14.16,15.89.1.04.2.09.35.12.31.08.63.16.96.22l.18.03c1.27.25,2.54.37,3.78.37,8.66,0,16.2-5.56,18.76-13.83.59-1.87.89-3.83.89-5.83v-.04c-.02-1.12-.9-1.99-2.01-1.99Z" fill="#6e0ff5"/>
</svg>