<?xml version="1.0" encoding="UTF-8"?>
<svg id="Layer_1" data-name="Layer 1" xmlns="http://www.w3.org/2000/svg" viewBox="0 0 60 45.29">
  <path d="m58.89,25.33l-5.25-8.11c-1.36-2.1-3.68-3.37-6.19-3.37h-6.34v-6.46C41.12,3.34,37.82.02,33.75.02H7.29C3.23.02-.07,3.34-.07,7.4v25.1c0,4.06,3.31,7.38,7.37,7.38h45.41c4.06,0,7.37-3.32,7.37-7.38v-3.16c0-1.42-.41-2.81-1.18-4.01Zm-4.33,7.17c0,1.02-.83,1.85-1.85,1.85h-11.03c1.11.35,1.92,1.39,1.92,2.63,0,1.52-1.23,2.76-2.75,2.76s-2.75-1.23-2.75-2.76c0-1.23.81-2.28,1.92-2.63h-22.56c1.1.35,1.91,1.39,1.91,2.63,0,1.52-1.22,2.76-2.74,2.76s-2.75-1.23-2.75-2.76c0-1.23.81-2.28,1.92-2.63H7.29c-1.01,0-1.84-.83-1.84-1.85V7.4c0-1.02.83-1.85,1.84-1.85h26.45c1.02,0,1.84.83,1.84,1.85v11.98h11.86c.63,0,1.21.32,1.55.85l5.25,8.11c.2.3.3.65.3,1v3.16Z" fill="#6e0ff5"/>
  <g>
    <path d="m21.5,34.36c-.93-1.71-2.76-2.88-4.84-2.88s-3.91,1.16-4.85,2.88c-.42.78-.66,1.67-.66,2.63,0,1.06.3,2.07.83,2.9.96,1.57,2.7,2.62,4.68,2.62s3.72-1.04,4.68-2.62c.52-.83.82-1.83.82-2.9,0-.95-.24-1.84-.66-2.63Zm-4.84-.12c.28,0,.56.04.82.12,1.1.35,1.91,1.39,1.91,2.63,0,1.52-1.22,2.76-2.74,2.76s-2.75-1.23-2.75-2.76c0-1.23.81-2.28,1.92-2.63.26-.08.54-.12.82-.12Z" fill="#6e0ff5"/>
    <path d="m24.49,34.36c-1.1-3.27-4.19-5.63-7.83-5.63s-6.75,2.37-7.84,5.63c-.28.82-.43,1.71-.43,2.63,0,1.01.18,1.99.52,2.9,1.17,3.14,4.2,5.37,7.75,5.37s6.56-2.24,7.74-5.37c.34-.9.52-1.88.52-2.9,0-.91-.15-1.8-.43-2.63Zm-5.09,2.63c0,1.52-1.22,2.76-2.74,2.76s-2.75-1.23-2.75-2.76c0-1.23.81-2.28,1.92-2.63.26-.08.54-.12.82-.12s.56.04.82.12c1.1.35,1.91,1.39,1.91,2.63Z" fill="#6e0ff5"/>
  </g>
  <g>
    <path d="m45.7,34.36c-.93-1.71-2.75-2.88-4.84-2.88s-3.91,1.16-4.84,2.88c-.43.78-.67,1.67-.67,2.63,0,1.06.3,2.07.83,2.9.96,1.57,2.71,2.62,4.68,2.62s3.72-1.04,4.68-2.62c.52-.83.82-1.83.82-2.9,0-.95-.24-1.84-.66-2.63Zm-4.84-.12c.28,0,.56.04.82.12,1.11.35,1.92,1.39,1.92,2.63,0,1.52-1.23,2.76-2.75,2.76s-2.75-1.23-2.75-2.76c0-1.23.81-2.28,1.92-2.63.26-.08.54-.12.82-.12Z" fill="#6e0ff5"/>
    <path d="m48.7,34.36c-1.1-3.27-4.2-5.63-7.84-5.63s-6.74,2.37-7.84,5.63c-.28.82-.43,1.71-.43,2.63,0,1.01.18,1.99.52,2.9,1.17,3.14,4.21,5.37,7.75,5.37s6.57-2.24,7.75-5.37c.34-.9.52-1.88.52-2.9,0-.91-.15-1.8-.43-2.63Zm-5.09,2.63c0,1.52-1.23,2.76-2.75,2.76s-2.75-1.23-2.75-2.76c0-1.23.81-2.28,1.92-2.63.26-.08.54-.12.82-.12s.56.04.82.12c1.11.35,1.92,1.39,1.92,2.63Z" fill="#6e0ff5"/>
  </g>
  <path d="m38.37,25.91c-1.52,0-2.76-1.24-2.76-2.76v-9.22c0-1.52,1.24-2.76,2.76-2.76s2.76,1.24,2.76,2.76v9.22c0,1.52-1.24,2.76-2.76,2.76Z" fill="#6e0ff5"/>
</svg>