<?xml version="1.0" encoding="UTF-8"?>
<svg xmlns="http://www.w3.org/2000/svg" viewBox="0 0 60.15 48.58">
  <g fill="none" isolation="isolate">
    <g id="Layer_1" data-name="Layer 1">
      <g fill="none" mix-blend-mode="multiply" opacity=".8">
        <rect x="13.13" y=".83" width="46.92" height="46.92" rx="23.46" ry="23.46" fill="#ff7ba7"/>
      </g>
      <rect x="22.46" y="10.16" width="28.25" height="28.25" rx="14.13" ry="14.13" fill="#ff7ba7" mix-blend-mode="multiply"/>
      <path d="m43.79,22.72l-12.18-12.18c-.78-.79-2.06-.79-2.84,0-.78.78-.78,2.06,0,2.84l8.75,8.75H11.11c-5.15,0-9.34,4.19-9.34,9.34s4.19,9.34,9.34,9.34h4.1s4.75.03,4.75.03c-.61-.62-1.27-1.33-1.84-2.07-.48-.61-.94-1.29-1.34-1.91l-.04-.06h-1.16s-.02,0-.03,0h-4.43c-2.93,0-5.32-2.39-5.32-5.32s2.39-5.32,5.32-5.32h26.41l-8.75,8.75c-.78.78-.78,2.06,0,2.84.39.39.91.59,1.42.59s1.03-.2,1.42-.59l12.18-12.18c.78-.78.78-2.06,0-2.84Z" fill="#6e0ff5" mix-blend-mode="multiply"/>
    </g>
  </g>
</svg>